<svg width="14" height="15" viewBox="0 0 14 15" fill="none" xmlns="http://www.w3.org/2000/svg">
<g id="Group">
<path id="Vector" d="M10.8497 3.84991C10.8497 1.73244 9.11721 0 6.99981 0C4.8824 0 3.1499 1.7325 3.1499 3.84991C3.1499 5.96731 4.8824 7.69981 6.99981 7.69981C9.11721 7.69981 10.8497 5.96731 10.8497 3.84991Z" fill="#272525"/>
<path id="Vector_2" d="M8.52241 8.50468C8.03245 8.66218 7.52491 8.74972 6.99991 8.74972C6.47491 8.74972 5.96737 8.66218 5.47741 8.50468C3.93745 7.99714 2.2224 8.41714 1.2075 9.65968C0.454921 10.5872 0 11.7773 0 13.0548C0 13.7723 0.577501 14.3498 1.29504 14.3498H12.705C13.4225 14.3498 14 13.7723 14 13.0548C14 11.7773 13.545 10.5873 12.7925 9.65968C11.76 8.41726 10.0624 7.99726 8.52229 8.50468H8.52241Z" fill="#272525"/>
</g>
</svg>
