<svg width="19" height="21" viewBox="0 0 19 21" fill="none" xmlns="http://www.w3.org/2000/svg">
<g id="Group 5">
<path id="Vector" d="M12.1472 8.75301L11.5003 4.18247C11.4357 3.62198 10.9614 3.21235 10.4009 3.21235H9.73257C9.68941 1.42294 8.22347 0 6.43403 0C4.64458 0 3.17863 1.42294 3.13548 3.21235L2.44551 3.2122C1.88501 3.2122 1.41071 3.62186 1.34603 4.18232L0.00939986 13.6037C-0.0767713 14.272 0.440544 14.8756 1.10888 14.8756H6.45555C6.64969 11.7279 9.06428 9.16245 12.1472 8.75282V8.75301ZM6.41243 1.35823C7.46886 1.35823 8.30967 2.19903 8.37435 3.23383L4.47214 3.23398C4.5153 2.19903 5.37763 1.35822 6.41254 1.35822L6.41243 1.35823ZM6.41243 8.86081C4.73081 8.86081 3.37255 7.50254 3.37255 5.82093C3.37255 5.45444 3.67437 5.15264 4.04084 5.15264C4.40733 5.15264 4.70914 5.45446 4.70914 5.82093C4.70914 6.76957 5.46379 7.52403 6.41223 7.52403C7.3392 7.52403 8.11533 6.76938 8.11533 5.82093C8.11533 5.45444 8.41715 5.15264 8.78363 5.15264C9.15011 5.15264 9.45192 5.45446 9.45192 5.82093C9.45207 7.52403 8.09396 8.86081 6.41235 8.86081H6.41243Z" fill="url(#paint0_linear_140_2582)"/>
<path id="Vector_2" d="M13.0309 10.0249C10.142 10.0249 7.79199 12.3748 7.79199 15.2638C7.79199 18.1527 10.1419 20.5026 13.0309 20.5026C15.9198 20.5026 18.2697 18.1527 18.2697 15.2638C18.2699 12.3749 15.9198 10.0249 13.0309 10.0249ZM15.3808 14.4876L13.0309 16.9669C12.9015 17.0962 12.729 17.1825 12.5566 17.1825C12.3841 17.1825 12.1901 17.1179 12.0823 16.9669L10.681 15.4793C10.4007 15.2206 10.4223 14.7894 10.681 14.5523C10.9397 14.2936 11.371 14.3151 11.6296 14.5738L12.5566 15.5439L14.4322 13.5605C14.6909 13.3018 15.1005 13.2802 15.3809 13.539C15.6397 13.7976 15.6397 14.2073 15.3809 14.4876L15.3808 14.4876Z" fill="url(#paint1_linear_140_2582)"/>
</g>
<defs>
<linearGradient id="paint0_linear_140_2582" x1="0" y1="0" x2="14.5754" y2="11.902" gradientUnits="userSpaceOnUse">
<stop stop-color="#75C043"/>
<stop offset="1" stop-color="#64B730"/>
</linearGradient>
<linearGradient id="paint1_linear_140_2582" x1="7.79199" y1="10.0249" x2="18.2697" y2="20.5026" gradientUnits="userSpaceOnUse">
<stop stop-color="#75C043"/>
<stop offset="1" stop-color="#64B730"/>
</linearGradient>
</defs>
</svg>
