<svg width="17" height="14" viewBox="0 0 17 14" fill="none" xmlns="http://www.w3.org/2000/svg">
<g id="Group">
<path id="Vector" fill-rule="evenodd" clip-rule="evenodd" d="M16.356 7.47853L13.7651 10.0164C13.0492 10.7303 11.9752 9.65954 12.691 8.94551L13.5655 8.07659C13.7647 7.87884 13.6992 7.71851 13.4193 7.71851H4.87755C4.45361 7.71851 4.11599 7.3795 4.11599 6.9612C4.11599 6.54396 4.45695 6.20407 4.87755 6.20407H13.4193C13.6981 6.20407 13.7647 6.04356 13.5655 5.84581L12.691 4.97671C11.9752 4.26302 13.0492 3.19196 13.7651 3.90583L16.3525 6.4177C16.655 6.71134 16.6555 7.18523 16.356 7.47854L16.356 7.47853ZM11.8834 2.03894C12.2293 2.38484 12.2293 2.94578 11.8834 3.29189C11.5373 3.63779 10.9763 3.63779 10.6304 3.29189C8.60392 1.2654 5.31829 1.2654 3.29189 3.29189C1.26549 5.31838 1.2654 8.60401 3.29189 10.6304C5.31838 12.6569 8.60401 12.6569 10.6304 10.6304C10.9763 10.2843 11.5372 10.2843 11.8834 10.6304C12.2293 10.9763 12.2293 11.5372 11.8834 11.8834C9.16487 14.6018 4.75729 14.6018 2.03885 11.8834C-0.679593 9.16487 -0.679638 4.75729 2.03885 2.03885C4.75733 -0.679593 9.16492 -0.679638 11.8834 2.03885V2.03894Z" fill="#272525"/>
</g>
</svg>
